<svg width="96" height="96" viewBox="0 0 96 96" fill="none" xmlns="http://www.w3.org/2000/svg">
<path d="M55.5358 12.8637C54.964 10.7298 52.7706 9.46351 50.6368 10.0353L15.8635 19.3528C13.7296 19.9245 12.4633 22.1179 13.035 24.2517L28.5642 82.2073C29.1359 84.3412 31.3293 85.6075 33.4632 85.0357L68.2365 75.7182C70.3703 75.1465 71.6367 72.9531 71.0649 70.8193L55.5358 12.8637Z" fill="#53C1FF"/>
<path fill-rule="evenodd" clip-rule="evenodd" d="M50.1195 8.10345L15.3462 17.4209C12.1454 18.2786 10.2459 21.5686 11.1035 24.7694L26.6327 82.725C27.4903 85.9257 30.7803 87.8252 33.9811 86.9676L68.7545 77.6501C71.9553 76.7925 73.8547 73.5024 72.9971 70.3016L57.468 12.3461C56.6103 9.1453 53.3203 7.2458 50.1195 8.10345ZM50.6371 10.0353C52.771 9.46354 54.9643 10.7299 55.5361 12.8637L71.0652 70.8193C71.637 72.9531 70.3707 75.1465 68.2368 75.7183L33.4635 85.0357C31.3296 85.6075 29.1363 84.3412 28.5645 82.2073L13.0354 24.2518C12.4636 22.1179 13.7299 19.9246 15.8638 19.3528L50.6371 10.0353Z" fill="#043E5F"/>
<path fill-rule="evenodd" clip-rule="evenodd" d="M71.0996 72.7549C70.7765 74.1482 69.7147 75.3221 68.2367 75.7181L33.4634 85.0356C31.3295 85.6074 29.1362 84.3411 28.5644 82.2072L13.0353 24.2516C12.4635 22.1178 13.7299 19.9244 15.8637 19.3527L16.0009 19.3159C15.8575 19.9342 15.8595 20.5957 16.0353 21.2516L31.5644 79.2072C32.1362 81.3411 34.3295 82.6074 36.4634 82.0356L71.0996 72.7549Z" fill="#9BDBFF"/>
<path d="M40.044 16.9812C40.325 14.79 42.3291 13.2414 44.5203 13.5224L80.2279 18.1008C82.4191 18.3818 83.9677 20.3859 83.6867 22.5771L76.056 82.0899C75.775 84.2811 73.7709 85.8296 71.5797 85.5487L35.8721 80.9702C33.6809 80.6893 32.1323 78.6852 32.4133 76.494L40.044 16.9812Z" fill="#A6FF35"/>
<path fill-rule="evenodd" clip-rule="evenodd" d="M44.7745 11.5386L80.4822 16.1171C83.769 16.5385 86.0918 19.5447 85.6704 22.8315L78.0396 82.3442C77.6182 85.631 74.6121 87.9539 71.3253 87.5324L35.6176 82.954C32.3308 82.5326 30.008 79.5264 30.4294 76.2396L38.0602 16.7269C38.4816 13.4401 41.4877 11.1172 44.7745 11.5386ZM44.5202 13.5224C42.329 13.2415 40.3249 14.79 40.0439 16.9812L32.4132 76.494C32.1322 78.6852 33.6808 80.6893 35.872 80.9702L71.5796 85.5487C73.7708 85.8296 75.7749 84.2811 76.0559 82.0899L83.6866 22.5771C83.9676 20.3859 82.419 18.3818 80.2278 18.1009L44.5202 13.5224Z" fill="#345E00"/>
<path fill-rule="evenodd" clip-rule="evenodd" d="M32.4819 77.9005C32.8472 79.4855 34.1645 80.7511 35.8722 80.97L71.5799 85.5485C73.7711 85.8295 75.7752 84.2809 76.0561 82.0897L83.6869 22.5769C83.9509 20.5182 82.5999 18.6248 80.6184 18.1702C80.7218 18.619 80.7489 19.0934 80.6869 19.5769L73.0561 79.0897C72.7752 81.2809 70.7711 82.8295 68.5799 82.5485L32.8722 77.97C32.7397 77.953 32.6095 77.9297 32.4819 77.9005Z" fill="#6EC500"/>
<path d="M28.0503 23.5356C28.0503 21.3265 29.8412 19.5356 32.0503 19.5356H68.0503C70.2594 19.5356 72.0503 21.3265 72.0503 23.5356V83.5356C72.0503 85.7448 70.2594 87.5356 68.0503 87.5356H32.0503C29.8412 87.5356 28.0503 85.7448 28.0503 83.5356V23.5356Z" fill="#FFBA35"/>
<path fill-rule="evenodd" clip-rule="evenodd" d="M32.0503 17.5356H68.0503C71.364 17.5356 74.0503 20.2219 74.0503 23.5356V83.5356C74.0503 86.8493 71.364 89.5356 68.0503 89.5356H32.0503C28.7366 89.5356 26.0503 86.8493 26.0503 83.5356V23.5356C26.0503 20.2219 28.7366 17.5356 32.0503 17.5356ZM32.0503 19.5356C29.8412 19.5356 28.0503 21.3265 28.0503 23.5356V83.5356C28.0503 85.7448 29.8412 87.5356 32.0503 87.5356H68.0503C70.2594 87.5356 72.0503 85.7448 72.0503 83.5356V23.5356C72.0503 21.3265 70.2594 19.5356 68.0503 19.5356H32.0503Z" fill="#501D01"/>
<path fill-rule="evenodd" clip-rule="evenodd" d="M28.4038 85.1821C29.0314 86.57 30.4281 87.5357 32.0503 87.5357H68.0503C70.2594 87.5357 72.0503 85.7448 72.0503 83.5357V23.5357C72.0503 21.9135 71.0846 20.5168 69.6968 19.8892C69.9239 20.3913 70.0503 20.9487 70.0503 21.5357V83.5357C70.0503 84.6402 69.1549 85.5357 68.0503 85.5357H30.0503C29.4634 85.5357 28.906 85.4092 28.4038 85.1821Z" fill="#CB8C12"/>
<path d="M68.0503 19.5356H32.0503C29.8412 19.5356 28.0503 21.3265 28.0503 23.5356V75.5356L72.0503 37.5356V23.5356C72.0503 21.3265 70.2594 19.5356 68.0503 19.5356Z" fill="#FFCD6B"/>
<path d="M28.0503 50.5356L53.0503 28L28.0503 45.5356V50.5356Z" fill="#FFBA35"/>
<path fill-rule="evenodd" clip-rule="evenodd" d="M29.0503 23.5356C29.0503 21.8788 30.3934 20.5356 32.0503 20.5356H66.0503C66.6026 20.5356 67.0503 20.9834 67.0503 21.5356C67.0503 22.0879 66.6026 22.5356 66.0503 22.5356H32.0503C31.498 22.5356 31.0503 22.9834 31.0503 23.5356V81.5356C31.0503 82.0879 30.6026 82.5356 30.0503 82.5356C29.498 82.5356 29.0503 82.0879 29.0503 81.5356V23.5356Z" fill="#FFE6B5"/>
<path fill-rule="evenodd" clip-rule="evenodd" d="M30.0503 27.5356C30.6026 27.5356 31.0503 27.9834 31.0503 28.5356V38.5356C31.0503 39.0879 30.6026 39.5356 30.0503 39.5356C29.498 39.5356 29.0503 39.0879 29.0503 38.5356V28.5356C29.0503 27.9834 29.498 27.5356 30.0503 27.5356Z" fill="#FFFDFA"/>
<path d="M40.0503 51.6L46.3003 50.3333L48.1753 47.1667L50.0503 44L53.8003 50.3333L60.0503 51.6L55.0503 56.6667L56.3003 63L50.0503 59.8333L43.8003 63L45.0503 56.6667L40.0503 51.6Z" fill="#FFCC45"/>
<path fill-rule="evenodd" clip-rule="evenodd" d="M46.3003 50.3333L50.0503 44L53.8003 50.3333L60.0503 51.6L55.0503 56.6667L56.3003 63L50.0503 59.8333L43.8003 63L45.0503 56.6667L40.0503 51.6L46.3003 50.3333ZM42.8832 57.318L38.6268 53.0048C38.111 52.4822 37.9231 51.7189 38.1373 51.0165C38.3516 50.3142 38.9334 49.7857 39.6531 49.6399L45.0321 48.5497L48.3294 42.981C48.6894 42.3729 49.3437 42 50.0503 42C50.757 42 51.4112 42.3729 51.7713 42.981L55.0685 48.5497L60.4476 49.6399C61.1673 49.7857 61.7491 50.3142 61.9633 51.0165C62.1776 51.7189 61.9897 52.4822 61.4739 53.0048L57.2175 57.318L58.2625 62.6127C58.4106 63.3631 58.1177 64.1323 57.5081 64.5942C56.8984 65.056 56.0787 65.1298 55.3964 64.7841L50.0503 62.0754L44.7043 64.7841C44.022 65.1298 43.2023 65.056 42.5926 64.5942C41.9829 64.1323 41.6901 63.3631 41.8382 62.6127L42.8832 57.318Z" fill="#C37808"/>
<path fill-rule="evenodd" clip-rule="evenodd" d="M50.5462 47.1318C51.0257 47.4058 51.1923 48.0167 50.9183 48.4962L48.9183 51.9962C48.783 52.2329 48.557 52.4041 48.2926 52.4702L44.2926 53.4702C43.7568 53.6041 43.2138 53.2784 43.0799 52.7426C42.9459 52.2068 43.2717 51.6639 43.8075 51.5299L47.3935 50.6334L49.1818 47.5039C49.4558 47.0244 50.0667 46.8578 50.5462 47.1318Z" fill="#FFF8E5"/>
<path d="M33.0503 24C33.0503 24.5523 32.6026 25 32.0503 25C31.498 25 31.0503 24.5523 31.0503 24C31.0503 23.4477 31.498 23 32.0503 23C32.6026 23 33.0503 23.4477 33.0503 24Z" fill="#FFE6B5"/>
<path fill-rule="evenodd" clip-rule="evenodd" d="M32.0503 23C31.498 23 31.0503 23.4477 31.0503 24C31.0503 24.5523 31.498 25 32.0503 25C32.6026 25 33.0503 24.5523 33.0503 24C33.0503 23.4477 32.6026 23 32.0503 23ZM35.0503 24C35.0503 25.6569 33.7071 27 32.0503 27C30.3934 27 29.0503 25.6569 29.0503 24C29.0503 22.3431 30.3934 21 32.0503 21C33.7071 21 35.0503 22.3431 35.0503 24Z" fill="#F0AA23"/>
<path d="M33.0503 83C33.0503 83.5523 32.6026 84 32.0503 84C31.498 84 31.0503 83.5523 31.0503 83C31.0503 82.4477 31.498 82 32.0503 82C32.6026 82 33.0503 82.4477 33.0503 83Z" fill="#FFBA35"/>
<path fill-rule="evenodd" clip-rule="evenodd" d="M32.0503 82C31.498 82 31.0503 82.4477 31.0503 83C31.0503 83.5523 31.498 84 32.0503 84C32.6026 84 33.0503 83.5523 33.0503 83C33.0503 82.4477 32.6026 82 32.0503 82ZM35.0503 83C35.0503 84.6569 33.7071 86 32.0503 86C30.3934 86 29.0503 84.6569 29.0503 83C29.0503 81.3431 30.3934 80 32.0503 80C33.7071 80 35.0503 81.3431 35.0503 83Z" fill="#CB8C12"/>
<path d="M69.0503 24C69.0503 24.5523 68.6026 25 68.0503 25C67.498 25 67.0503 24.5523 67.0503 24C67.0503 23.4477 67.498 23 68.0503 23C68.6026 23 69.0503 23.4477 69.0503 24Z" fill="#FFE6B5"/>
<path fill-rule="evenodd" clip-rule="evenodd" d="M68.0503 23C67.498 23 67.0503 23.4477 67.0503 24C67.0503 24.5523 67.498 25 68.0503 25C68.6026 25 69.0503 24.5523 69.0503 24C69.0503 23.4477 68.6026 23 68.0503 23ZM71.0503 24C71.0503 25.6569 69.7071 27 68.0503 27C66.3934 27 65.0503 25.6569 65.0503 24C65.0503 22.3431 66.3934 21 68.0503 21C69.7071 21 71.0503 22.3431 71.0503 24Z" fill="#F0AA23"/>
<path d="M69.0503 83C69.0503 83.5523 68.6026 84 68.0503 84C67.498 84 67.0503 83.5523 67.0503 83C67.0503 82.4477 67.498 82 68.0503 82C68.6026 82 69.0503 82.4477 69.0503 83Z" fill="#FFBA35"/>
<path fill-rule="evenodd" clip-rule="evenodd" d="M68.0503 82C67.498 82 67.0503 82.4477 67.0503 83C67.0503 83.5523 67.498 84 68.0503 84C68.6026 84 69.0503 83.5523 69.0503 83C69.0503 82.4477 68.6026 82 68.0503 82ZM71.0503 83C71.0503 84.6569 69.7071 86 68.0503 86C66.3934 86 65.0503 84.6569 65.0503 83C65.0503 81.3431 66.3934 80 68.0503 80C69.7071 80 71.0503 81.3431 71.0503 83Z" fill="#CB8C12"/>
<path d="M56.0503 77.5C56.0503 78.3284 55.3787 79 54.5503 79C53.7219 79 53.0503 78.3284 53.0503 77.5C53.0503 76.6716 53.7219 76 54.5503 76C55.3787 76 56.0503 76.6716 56.0503 77.5Z" fill="#DE9E23"/>
<path d="M66.0503 79C66.0503 80.1046 65.1549 81 64.0503 81C62.9457 81 62.0503 80.1046 62.0503 79C62.0503 77.8954 62.9457 77 64.0503 77C65.1549 77 66.0503 77.8954 66.0503 79Z" fill="#DE9E23"/>
<path d="M65.0503 72C65.0503 72.5523 64.6026 73 64.0503 73C63.498 73 63.0503 72.5523 63.0503 72C63.0503 71.4477 63.498 71 64.0503 71C64.6026 71 65.0503 71.4477 65.0503 72Z" fill="#DE9E23"/>
<path d="M60.0503 82C60.0503 82.5523 59.6026 83 59.0503 83C58.498 83 58.0503 82.5523 58.0503 82C58.0503 81.4477 58.498 81 59.0503 81C59.6026 81 60.0503 81.4477 60.0503 82Z" fill="#DE9E23"/>
<path d="M48.0503 83C48.0503 83.5523 47.6026 84 47.0503 84C46.498 84 46.0503 83.5523 46.0503 83C46.0503 82.4477 46.498 82 47.0503 82C47.6026 82 48.0503 82.4477 48.0503 83Z" fill="#DE9E23"/>
<path d="M53.0503 82C53.0503 82.5523 52.6026 83 52.0503 83C51.498 83 51.0503 82.5523 51.0503 82C51.0503 81.4477 51.498 81 52.0503 81C52.6026 81 53.0503 81.4477 53.0503 82Z" fill="#DE9E23"/>
<path d="M61.0503 77C61.0503 77.5523 60.6026 78 60.0503 78C59.498 78 59.0503 77.5523 59.0503 77C59.0503 76.4477 59.498 76 60.0503 76C60.6026 76 61.0503 76.4477 61.0503 77Z" fill="#DE9E23"/>
<path d="M60.0503 72.5C60.0503 72.7761 59.8264 73 59.5503 73C59.2742 73 59.0503 72.7761 59.0503 72.5C59.0503 72.2239 59.2742 72 59.5503 72C59.8264 72 60.0503 72.2239 60.0503 72.5Z" fill="#DE9E23"/>
<path d="M58.0503 75.5C58.0503 75.7761 57.8264 76 57.5503 76C57.2742 76 57.0503 75.7761 57.0503 75.5C57.0503 75.2239 57.2742 75 57.5503 75C57.8264 75 58.0503 75.2239 58.0503 75.5Z" fill="#DE9E23"/>
<path d="M50.0503 78.5C50.0503 78.7761 49.8264 79 49.5503 79C49.2742 79 49.0503 78.7761 49.0503 78.5C49.0503 78.2239 49.2742 78 49.5503 78C49.8264 78 50.0503 78.2239 50.0503 78.5Z" fill="#DE9E23"/>
<path d="M62.0503 68.5C62.0503 68.7761 61.8264 69 61.5503 69C61.2742 69 61.0503 68.7761 61.0503 68.5C61.0503 68.2239 61.2742 68 61.5503 68C61.8264 68 62.0503 68.2239 62.0503 68.5Z" fill="#DE9E23"/>
<path d="M68.0503 69.5C68.0503 69.7761 67.8264 70 67.5503 70C67.2742 70 67.0503 69.7761 67.0503 69.5C67.0503 69.2239 67.2742 69 67.5503 69C67.8264 69 68.0503 69.2239 68.0503 69.5Z" fill="#DE9E23"/>
<path d="M67.0503 64.5C67.0503 64.7761 66.8264 65 66.5503 65C66.2742 65 66.0503 64.7761 66.0503 64.5C66.0503 64.2239 66.2742 64 66.5503 64C66.8264 64 67.0503 64.2239 67.0503 64.5Z" fill="#DE9E23"/>
<path d="M68.0503 79.5C68.0503 79.7761 67.8264 80 67.5503 80C67.2742 80 67.0503 79.7761 67.0503 79.5C67.0503 79.2239 67.2742 79 67.5503 79C67.8264 79 68.0503 79.2239 68.0503 79.5Z" fill="#DE9E23"/>
<path d="M65.0503 83.5C65.0503 83.7761 64.8264 84 64.5503 84C64.2742 84 64.0503 83.7761 64.0503 83.5C64.0503 83.2239 64.2742 83 64.5503 83C64.8264 83 65.0503 83.2239 65.0503 83.5Z" fill="#DE9E23"/>
<path d="M58.0503 79.5C58.0503 79.7761 57.8264 80 57.5503 80C57.2742 80 57.0503 79.7761 57.0503 79.5C57.0503 79.2239 57.2742 79 57.5503 79C57.8264 79 58.0503 79.2239 58.0503 79.5Z" fill="#DE9E23"/>
<path d="M56.0503 82.5C56.0503 82.7761 55.8264 83 55.5503 83C55.2742 83 55.0503 82.7761 55.0503 82.5C55.0503 82.2239 55.2742 82 55.5503 82C55.8264 82 56.0503 82.2239 56.0503 82.5Z" fill="#DE9E23"/>
<path d="M46.0503 79.5C46.0503 79.7761 45.8264 80 45.5503 80C45.2742 80 45.0503 79.7761 45.0503 79.5C45.0503 79.2239 45.2742 79 45.5503 79C45.8264 79 46.0503 79.2239 46.0503 79.5Z" fill="#DE9E23"/>
<path d="M66.0503 67.5C66.0503 67.7761 65.8264 68 65.5503 68C65.2742 68 65.0503 67.7761 65.0503 67.5C65.0503 67.2239 65.2742 67 65.5503 67C65.8264 67 66.0503 67.2239 66.0503 67.5Z" fill="#DE9E23"/>
<path d="M68.0503 74C68.0503 74.5523 67.6026 75 67.0503 75C66.498 75 66.0503 74.5523 66.0503 74C66.0503 73.4477 66.498 73 67.0503 73C67.6026 73 68.0503 73.4477 68.0503 74Z" fill="#DE9E23"/>
</svg>
