<svg width="96" height="96" viewBox="0 0 96 96" fill="none" xmlns="http://www.w3.org/2000/svg">
<path d="M20 24C19.4477 24 19 24.4477 19 25V66.3595C19 68.5086 21.1934 69.9606 23.1718 69.1212L46.8282 59.0835C47.5771 58.7657 48.4229 58.7657 49.1718 59.0835L72.8282 69.1212C74.8066 69.9606 77 68.5086 77 66.3595V25C77 24.4477 76.5523 24 76 24H20Z" fill="#2389D2" stroke="#042360" stroke-width="2" stroke-linejoin="round"/>
<path d="M76 25H20V29H76V25Z" fill="#0D66A6"/>
<path d="M48.4008 6.08384C48.1453 5.97205 47.8547 5.97205 47.5992 6.08384L31.5992 13.0838C31.1655 13.2736 30.9243 13.7414 31.0212 14.2047C31.1181 14.6681 31.5266 15 32 15H64C64.4734 15 64.8819 14.6681 64.9788 14.2047C65.0757 13.7414 64.8345 13.2736 64.4008 13.0838L48.4008 6.08384Z" stroke="#042360" stroke-width="2" stroke-linejoin="round"/>
<path d="M16 14C13.2386 14 11 16.2386 11 19C11 21.7614 13.2386 24 16 24H80C82.7614 24 85 21.7614 85 19C85 16.2386 82.7614 14 80 14H16Z" fill="#E9B145" stroke="#042360" stroke-width="2"/>
<path d="M15 17H80" stroke="#FFCB65" stroke-width="2" stroke-linecap="round" stroke-linejoin="round"/>
<path d="M17 17H34" stroke="#FFEBC5" stroke-width="2" stroke-linecap="round" stroke-linejoin="round"/>
<path d="M18 22L23 16" stroke="#D19521" stroke-width="2" stroke-linecap="round" stroke-linejoin="round"/>
<path d="M39 22L44 16" stroke="#D19521" stroke-width="2" stroke-linecap="round" stroke-linejoin="round"/>
<path d="M25 22L30 16" stroke="#D19521" stroke-width="2" stroke-linecap="round" stroke-linejoin="round"/>
<path d="M46 22L51 16" stroke="#D19521" stroke-width="2" stroke-linecap="round" stroke-linejoin="round"/>
<path d="M32 22L37 16" stroke="#D19521" stroke-width="2" stroke-linecap="round" stroke-linejoin="round"/>
<path d="M53 22L58 16" stroke="#D19521" stroke-width="2" stroke-linecap="round" stroke-linejoin="round"/>
<path d="M60 22L65 16" stroke="#D19521" stroke-width="2" stroke-linecap="round" stroke-linejoin="round"/>
<path d="M67 22L72 16" stroke="#D19521" stroke-width="2" stroke-linecap="round" stroke-linejoin="round"/>
<path d="M74 22L79 16" stroke="#D19521" stroke-width="2" stroke-linecap="round" stroke-linejoin="round"/>
<path d="M26 24C25.4477 24 25 24.4477 25 25V75.0152C25 76.8389 25.993 78.518 27.5911 79.3967L45.5911 89.2927C47.0912 90.1174 48.9088 90.1174 50.4089 89.2927L68.4089 79.3967C70.007 78.518 71 76.8389 71 75.0152V25C71 24.4477 70.5523 24 70 24H26Z" fill="#38ACFF" stroke="#042360" stroke-width="2" stroke-linejoin="round"/>
<circle cx="67" cy="76" r="1" fill="#2797E8"/>
<circle cx="62" cy="68" r="1" fill="#2797E8"/>
<circle cx="67" cy="65" r="1" fill="#2797E8"/>
<circle cx="55" cy="82" r="1" fill="#2797E8"/>
<circle cx="62" cy="78" r="1" fill="#2797E8"/>
<circle cx="57.5" cy="78.5" r="1.5" fill="#2797E8"/>
<circle cx="67" cy="70" r="1" fill="#2797E8"/>
<circle cx="60" cy="74" r="1" fill="#2797E8"/>
<circle cx="64.5" cy="72.5" r="1.5" fill="#2797E8"/>
<path d="M70 25H26V29H70V25Z" fill="#1987D7"/>
<path d="M28 33V74.7925C28 75.5351 28.4114 76.2165 29.0685 76.5624L47 86" stroke="#79C7FF" stroke-width="2" stroke-linecap="round" stroke-linejoin="round"/>
<path d="M68 55.5V45.25M58.5 81L63.25 78.5" stroke="#79C7FF" stroke-width="2" stroke-linecap="round" stroke-linejoin="round"/>
<path d="M28 55.5V45.25M37.5 81L32.75 78.5" stroke="#DCFBFF" stroke-width="2" stroke-linecap="round" stroke-linejoin="round"/>
<path d="M48 70C56.4055 70 63 62.2592 63 53C63 43.7408 56.4055 36 48 36C39.5945 36 33 43.7408 33 53C33 62.2592 39.5945 70 48 70Z" fill="#58D6F2" stroke="#297CB8" stroke-width="2"/>
<path d="M35 53C35 44.7157 40.8203 38 48 38" stroke="#DCFBFF" stroke-width="2" stroke-linecap="round" stroke-linejoin="round"/>
<path d="M52.0127 46.3069C52.1863 45.1032 51.2581 44 50.0219 44H45.9781C44.7419 44 43.8137 45.1032 43.9873 46.3069C44.1005 47.0917 44.2487 48.1969 44.3711 49.3711C43.1969 49.2487 42.0917 49.1005 41.3069 48.9873C40.1032 48.8137 39 49.7419 39 50.9781V55.0219C39 56.2581 40.1032 57.1863 41.3069 57.0127C42.0917 56.8995 43.1969 56.7513 44.3711 56.6289C44.2487 57.8031 44.1005 58.9083 43.9873 59.6931C43.8137 60.8968 44.7419 62 45.9781 62H50.0219C51.2581 62 52.1863 60.8968 52.0127 59.6931C51.8995 58.9083 51.7513 57.8031 51.6289 56.6289C52.8031 56.7513 53.9083 56.8995 54.6931 57.0127C55.8968 57.1863 57 56.2581 57 55.0219V50.9781C57 49.7419 55.8968 48.8137 54.6931 48.9873C53.9083 49.1005 52.8031 49.2487 51.6289 49.3711C51.7513 48.1969 51.8995 47.0917 52.0127 46.3069Z" fill="#D5F7FF" stroke="#1265A0" stroke-width="2"/>
</svg>
