<svg width="96" height="96" viewBox="0 0 96 96" fill="none" xmlns="http://www.w3.org/2000/svg">
<path d="M33.6367 19.9636C25.1961 18.0846 15.5002 22.4487 13.773 31.342L7.71677 62.5251C6.58327 68.3615 10.1574 74.0803 15.9002 75.6191C21.0685 77.0039 26.5001 74.5813 28.9234 69.8122L37.445 53.9636H48.0744H58.7037L67.2254 69.8122C69.6487 74.5813 75.0802 77.0039 80.2485 75.6191C85.9913 74.0803 89.5655 68.3615 88.432 62.5251L82.3757 31.342C80.6485 22.4487 70.9526 18.0846 62.512 19.9636H33.6367Z" fill="#B7B7B7" stroke="#0F0F0F" stroke-width="2" stroke-linejoin="round"/>
<path d="M33.5253 20.9636C25.4366 19.1074 16.3508 23.3152 14.7548 31.5327L10.3913 54.0001C9.59427 58.3335 9.64966 66.7063 16.0002 67.5001C20.0002 68.0001 23.0002 66.0001 27.0002 60.0001L36.8475 43.9636H59.1909L69.0381 60.0001C73.0381 66.0001 76.0381 68.0001 80.0381 67.5001C86.3887 66.7063 86.4441 58.3335 85.647 54.0001L81.2835 31.5327C79.6876 23.3152 70.6017 19.1074 62.513 20.9636H33.5253Z" fill="#D7D7D7"/>
<ellipse cx="25.5259" cy="34.3724" rx="8.5" ry="12" transform="rotate(23.0944 25.5259 34.3724)" fill="#E1E1E1"/>
<path d="M26 23C23 24 18.3096 26.4522 17 33C15.5 40.5 14 47 13 52" stroke="#F2F2F2" stroke-width="2" stroke-linecap="round" stroke-linejoin="round"/>
<path d="M17 33C17.7964 29.0178 19.8434 26.5505 22 25.0034" stroke="white" stroke-width="2" stroke-linecap="round" stroke-linejoin="round"/>
<mask id="path-6-outside-1_201_3591" maskUnits="userSpaceOnUse" x="20" y="25" width="20" height="20" fill="black">
<rect fill="white" x="20" y="25" width="20" height="20"/>
<path fill-rule="evenodd" clip-rule="evenodd" d="M29 27C28.4477 27 28 27.4477 28 28V33H23C22.4477 33 22 33.4477 22 34V36C22 36.5523 22.4477 37 23 37H28V42C28 42.5523 28.4477 43 29 43H31C31.5523 43 32 42.5523 32 42V37H37C37.5523 37 38 36.5523 38 36V34C38 33.4477 37.5523 33 37 33H32V28C32 27.4477 31.5523 27 31 27H29Z"/>
</mask>
<path fill-rule="evenodd" clip-rule="evenodd" d="M29 27C28.4477 27 28 27.4477 28 28V33H23C22.4477 33 22 33.4477 22 34V36C22 36.5523 22.4477 37 23 37H28V42C28 42.5523 28.4477 43 29 43H31C31.5523 43 32 42.5523 32 42V37H37C37.5523 37 38 36.5523 38 36V34C38 33.4477 37.5523 33 37 33H32V28C32 27.4477 31.5523 27 31 27H29Z" fill="#5A5A5A"/>
<path d="M28 33V35H30V33H28ZM28 37H30V35H28V37ZM32 37V35H30V37H32ZM32 33H30V35H32V33ZM30 28C30 28.5523 29.5523 29 29 29V25C27.3431 25 26 26.3431 26 28H30ZM30 33V28H26V33H30ZM23 35H28V31H23V35ZM24 34C24 34.5523 23.5523 35 23 35V31C21.3431 31 20 32.3431 20 34H24ZM24 36V34H20V36H24ZM23 35C23.5523 35 24 35.4477 24 36H20C20 37.6569 21.3431 39 23 39V35ZM28 35H23V39H28V35ZM30 42V37H26V42H30ZM29 41C29.5523 41 30 41.4477 30 42H26C26 43.6569 27.3431 45 29 45V41ZM31 41H29V45H31V41ZM30 42C30 41.4477 30.4477 41 31 41V45C32.6569 45 34 43.6569 34 42H30ZM30 37V42H34V37H30ZM37 35H32V39H37V35ZM36 36C36 35.4477 36.4477 35 37 35V39C38.6569 39 40 37.6569 40 36H36ZM36 34V36H40V34H36ZM37 35C36.4477 35 36 34.5523 36 34H40C40 32.3431 38.6569 31 37 31V35ZM32 35H37V31H32V35ZM30 28V33H34V28H30ZM31 29C30.4477 29 30 28.5523 30 28H34C34 26.3431 32.6569 25 31 25V29ZM29 29H31V25H29V29Z" fill="#222222" mask="url(#path-6-outside-1_201_3591)"/>
<path d="M23 34H29V28" stroke="#8C8C8C" stroke-width="2" stroke-linecap="round" stroke-linejoin="round"/>
<circle cx="66" cy="29" r="3" fill="#BE62E9" stroke="#222222" stroke-width="2" stroke-linejoin="round"/>
<circle cx="66" cy="41" r="3" fill="#9DE962" stroke="#222222" stroke-width="2" stroke-linejoin="round"/>
<circle cx="60" cy="35" r="3" fill="#E9CB62" stroke="#222222" stroke-width="2" stroke-linejoin="round"/>
<circle cx="72" cy="35" r="3" fill="#62D0E9" stroke="#222222" stroke-width="2" stroke-linejoin="round"/>
<circle cx="83.232" cy="55.8454" r="1" transform="rotate(-2.45148 83.232 55.8454)" fill="#B7B7B7"/>
<circle cx="76.1529" cy="54.1466" r="1" transform="rotate(-2.45148 76.1529 54.1466)" fill="#B7B7B7"/>
<circle cx="76.9381" cy="49.1084" r="1" transform="rotate(-2.45148 76.9381 49.1084)" fill="#B7B7B7"/>
<circle cx="76.7242" cy="44.113" r="1" transform="rotate(-2.45148 76.7242 44.113)" fill="#B7B7B7"/>
<circle cx="79.5504" cy="39.9884" r="1" transform="rotate(-2.45148 79.5504 39.9884)" fill="#B7B7B7"/>
<circle cx="80.8489" cy="46.9392" r="1" transform="rotate(-2.45148 80.8489 46.9392)" fill="#B7B7B7"/>
<circle cx="83.4459" cy="60.8408" r="1" transform="rotate(-2.45148 83.4459 60.8408)" fill="#B7B7B7"/>
<circle cx="79.364" cy="59.0138" r="2" transform="rotate(-2.45148 79.364 59.0138)" fill="#B7B7B7"/>
<circle cx="80.5846" cy="52.4555" r="1.5" transform="rotate(-2.45148 80.5846 52.4555)" fill="#B7B7B7"/>
<path d="M35 23H54" stroke="#F2F2F2" stroke-width="2" stroke-linecap="round" stroke-linejoin="round"/>
</svg>
