<svg width="96" height="96" viewBox="0 0 96 96" fill="none" xmlns="http://www.w3.org/2000/svg">
<path d="M13.3084 39.1336L30.5129 35.6818C31.6189 35.4599 32.5798 34.7813 33.1589 33.8131L40.1246 22.1667L44.5668 14.7396C46.1193 12.1438 49.8799 12.1438 51.4325 14.7396L62.8404 33.8131C63.4194 34.7813 64.3803 35.4599 65.4864 35.6818L82.6909 39.1336C85.8193 39.7613 86.9896 43.6196 84.7369 45.8794L70.507 60.1545C69.565 61.0995 69.1562 62.452 69.4171 63.7605L72.6492 79.9726C73.3003 83.2381 69.9094 85.823 66.933 84.3301L49.793 75.7329C48.6644 75.1668 47.3348 75.1668 46.2062 75.7329L29.0662 84.3301C26.0898 85.823 22.699 83.2381 23.35 79.9726L26.5822 63.7605C26.843 62.452 26.4343 61.0995 25.4923 60.1545L11.2623 45.8794C9.00964 43.6196 10.1799 39.7613 13.3084 39.1336Z" fill="#F7B307"/>
<path fill-rule="evenodd" clip-rule="evenodd" d="M12.9152 37.1727L30.1197 33.7209C30.6727 33.6099 31.1532 33.2706 31.4427 32.7865L42.8506 13.713C45.1794 9.81934 50.8204 9.81936 53.1491 13.713L64.557 32.7865C64.8466 33.2706 65.327 33.6099 65.88 33.7209L83.0846 37.1727C87.7772 38.1142 89.5326 43.9016 86.1536 47.2914L71.9237 61.5665C71.4527 62.039 71.2483 62.7152 71.3787 63.3695L74.6109 79.5815C75.5874 84.4799 70.5011 88.3572 66.0366 86.1178L48.8966 77.5206C48.3323 77.2375 47.6675 77.2375 47.1032 77.5206L29.9632 86.1178C25.4986 88.3572 20.4123 84.4798 21.3889 79.5815L24.621 63.3695C24.7514 62.7152 24.5471 62.039 24.0761 61.5665L9.8461 47.2914C6.4671 43.9016 8.22248 38.1142 12.9152 37.1727ZM30.5131 35.6818L13.3086 39.1336C10.1801 39.7613 9.00989 43.6196 11.2625 45.8794L25.4925 60.1545C26.4345 61.0995 26.8433 62.452 26.5824 63.7606L23.3503 79.9726C22.6992 83.2381 26.0901 85.823 29.0665 84.3301L46.2065 75.7329C47.3351 75.1668 48.6647 75.1668 49.7933 75.7329L66.9333 84.3301C69.9097 85.823 73.3005 83.2381 72.6495 79.9726L69.4173 63.7606C69.1564 62.452 69.5652 61.0995 70.5072 60.1545L84.7372 45.8794C86.9898 43.6196 85.8196 39.7613 82.6911 39.1336L65.4866 35.6818C64.3806 35.4599 63.4197 34.7813 62.8406 33.8131L51.4327 14.7396C49.8802 12.1438 46.1195 12.1438 44.567 14.7396L33.1591 33.8131C32.5801 34.7813 31.6191 35.4599 30.5131 35.6818Z" fill="#5B3303"/>
<path fill-rule="evenodd" clip-rule="evenodd" d="M44.5404 49.1588C45.005 49.4575 45.1395 50.0762 44.8408 50.5408L35.8408 64.5408C35.5422 65.0053 34.9234 65.1398 34.4589 64.8412C33.9943 64.5425 33.8598 63.9238 34.1585 63.4592L43.1585 49.4592C43.4571 48.9947 44.0758 48.8602 44.5404 49.1588Z" fill="#FFC530"/>
<path d="M84.7374 45.8796L72.6147 58.0408C71.3646 59.2948 69.439 59.5778 67.8811 58.7364L48 48L63.9277 35C64.3876 35.333 64.918 35.5679 65.4868 35.682L82.6913 39.1338C85.8198 39.7615 86.99 43.6198 84.7374 45.8796Z" fill="#FFC01D"/>
<path fill-rule="evenodd" clip-rule="evenodd" d="M72.9919 42.8759C73.0604 43.424 72.6717 43.9238 72.1237 43.9923L56.1237 45.9923C55.5756 46.0608 55.0758 45.672 55.0073 45.124C54.9388 44.576 55.3276 44.0762 55.8756 44.0077L71.8756 42.0077C72.4236 41.9392 72.9234 42.3279 72.9919 42.8759Z" fill="#FFD363"/>
<path d="M46.2066 75.7331L29.0666 84.3303C27.6157 85.0581 26.0662 84.8168 24.9346 84L48 48L85.9072 43C85.926 44.0163 85.5599 45.0545 84.7373 45.8796L70.5074 60.1547C69.5654 61.0997 69.1566 62.4522 69.4175 63.7608L72.6496 79.9728C73.3007 83.2383 69.9098 85.8232 66.9334 84.3303L49.7934 75.7331C48.6648 75.167 47.3352 75.167 46.2066 75.7331Z" fill="#CF9500"/>
<path d="M69.4176 63.7608L72.6497 79.9728C72.9834 81.6465 72.2554 83.1413 71.0656 84L48 48L70.5075 60.1548C69.5655 61.0998 69.1567 62.4523 69.4176 63.7608Z" fill="#B97D08"/>
<path d="M13.3087 39.1338L30.5132 35.682C31.6192 35.4601 32.5801 34.7815 33.1592 33.8133L44.5671 14.7398C45.3433 13.4419 46.6716 12.793 47.9998 12.793V48L10.2373 42C10.6134 40.6289 11.7032 39.4559 13.3087 39.1338Z" fill="#FFD056"/>
<path fill-rule="evenodd" clip-rule="evenodd" d="M46.0192 18.0002C46.5714 18.011 47.0103 18.4674 46.9994 19.0196L46.4994 44.5196C46.4939 44.8034 46.368 45.0714 46.1532 45.2569C45.9384 45.4424 45.6549 45.5278 45.3734 45.492L17.8734 41.992C17.3255 41.9223 16.9379 41.4216 17.0076 40.8737C17.0774 40.3259 17.578 39.9383 18.1259 40.008L44.5216 43.3675L44.9998 18.9804C45.0106 18.4282 45.467 17.9894 46.0192 18.0002Z" fill="#FFE39A"/>
<path fill-rule="evenodd" clip-rule="evenodd" d="M38.0076 43.5466C38.0774 42.9987 38.578 42.6111 39.1259 42.6808L45.6259 43.5081C46.1737 43.5778 46.5613 44.0785 46.4916 44.6264C46.4219 45.1742 45.9212 45.5618 45.3734 45.4921L38.8734 44.6648C38.3255 44.5951 37.9379 44.0944 38.0076 43.5466Z" fill="#FFFBF0"/>
<path d="M49 55.5C49 56.3284 48.3284 57 47.5 57C46.6716 57 46 56.3284 46 55.5C46 54.6716 46.6716 54 47.5 54C48.3284 54 49 54.6716 49 55.5Z" fill="#BA8600"/>
<path d="M52 59.5C52 59.7761 51.7761 60 51.5 60C51.2239 60 51 59.7761 51 59.5C51 59.2239 51.2239 59 51.5 59C51.7761 59 52 59.2239 52 59.5Z" fill="#BA8600"/>
<path d="M45 63.5C45 63.7761 44.7761 64 44.5 64C44.2239 64 44 63.7761 44 63.5C44 63.2239 44.2239 63 44.5 63C44.7761 63 45 63.2239 45 63.5Z" fill="#BA8600"/>
<path d="M51 62.5C51 62.7761 50.7761 63 50.5 63C50.2239 63 50 62.7761 50 62.5C50 62.2239 50.2239 62 50.5 62C50.7761 62 51 62.2239 51 62.5Z" fill="#BA8600"/>
<path d="M58 66.5C58 66.7761 57.7761 67 57.5 67C57.2239 67 57 66.7761 57 66.5C57 66.2239 57.2239 66 57.5 66C57.7761 66 58 66.2239 58 66.5Z" fill="#BA8600"/>
<path d="M51 55.5C51 55.7761 50.7761 56 50.5 56C50.2239 56 50 55.7761 50 55.5C50 55.2239 50.2239 55 50.5 55C50.7761 55 51 55.2239 51 55.5Z" fill="#BA8600"/>
<path d="M48 51.5C48 51.7761 47.7761 52 47.5 52C47.2239 52 47 51.7761 47 51.5C47 51.2239 47.2239 51 47.5 51C47.7761 51 48 51.2239 48 51.5Z" fill="#BA8600"/>
<path d="M53 65.5C53 65.7761 52.7761 66 52.5 66C52.2239 66 52 65.7761 52 65.5C52 65.2239 52.2239 65 52.5 65C52.7761 65 53 65.2239 53 65.5Z" fill="#BA8600"/>
<path d="M50 59C50 59.5523 49.5523 60 49 60C48.4477 60 48 59.5523 48 59C48 58.4477 48.4477 58 49 58C49.5523 58 50 58.4477 50 59Z" fill="#BA8600"/>
<path d="M49 63C49 63.5523 48.5523 64 48 64C47.4477 64 47 63.5523 47 63C47 62.4477 47.4477 62 48 62C48.5523 62 49 62.4477 49 63Z" fill="#BA8600"/>
<path d="M55 63C55 63.5523 54.5523 64 54 64C53.4477 64 53 63.5523 53 63C53 62.4477 53.4477 62 54 62C54.5523 62 55 62.4477 55 63Z" fill="#BA8600"/>
<path d="M46 60C46 60.5523 45.5523 61 45 61C44.4477 61 44 60.5523 44 60C44 59.4477 44.4477 59 45 59C45.5523 59 46 59.4477 46 60Z" fill="#BA8600"/>
</svg>
